# xmcd
#
# Track frame offsets:
#	150
#	23718
#	45381
#	59876
#	77244
#	94047
#	132694
#	163878
#	183109
#	197834
#	219811
#	237066
#	255610
#
# Disc length: 3861
#
# Revision: 2
# Processed by: cddbd v1.5.1PL0 Copyright (c) Steve Scherf et al.
# Submitted via: CDex 1.50Beta3
# Normalized: r1:TDELIM( - )
#
DISCID=b10f130d
DTITLE=Various Artist - Spirituality
DYEAR=2000
DGENRE=New Age
TTITLE0=Loreena McKennit - Marco Polo
TTITLE1=Enigma - Beyond The Invisible
TTITLE2=Eric Levi - Enae Volare
TTITLE3=Deep Forest - Sweet Lullaby
TTITLE4=Hildegard Von Bingen - For The Trinity
TTITLE5=Loreena McKennit - Night Ride Across The Caucusus
TTITLE6=Enigma - The Eyes Of Truth
TTITLE7=John Williams - Dual Of The Fates
TTITLE8=Spiritual Project - O'Fortuna
TTITLE9=Vangelis - Conquest Of Paradise
TTITLE10=Eric Levi - Ameno
TTITLE11=Enigma - The Return To Innocense
TTITLE12=Loreena McKennit - The Mystic's Dream
EXTD=YEAR: 2000
EXTT0=
EXTT1=
EXTT2=
EXTT3=
EXTT4=
EXTT5=
EXTT6=
EXTT7=
EXTT8=
EXTT9=
EXTT10=
EXTT11=
EXTT12=
PLAYORDER=
